name rise30.3154peak39.0474fall46.5389.mot
datacolumns 19
datarows 12
range 12.87661800000000 12.89495800000000
endheader
time	ground_force1_vx	ground_force1_vy	ground_force1_vz	ground_force1_px	ground_force1_py	ground_force1_pz	ground_force2_vx	ground_force2_vy	ground_force2_vz	ground_force2_px	ground_force2_py	ground_force2_pz	ground_torque1_x	ground_torque1_y	ground_torque1_z	ground_torque2_x	ground_torque2_y	ground_torque2_z	
12.87661800000000	54.53020500000000	752.82763599999998	63.90171600000000	0.36208600000000	0.00000000000000	0.10749100000000	0.00000000000000	0.00000000000000	0.00000000000000	0.00000000000000	0.00000000000000	0.00000000000000	0.00000000000000	32.07760500000000	0.00000000000000	0.00000000000000	0.00000000000000	0.00000000000000	
12.87828400000000	53.80014900000000	754.59608700000001	63.92153400000000	0.36076400000000	0.00000000000000	0.10753500000000	0.00000000000000	0.00000000000000	0.00000000000000	0.00000000000000	0.00000000000000	0.00000000000000	0.00000000000000	32.05642800000000	0.00000000000000	0.00000000000000	0.00000000000000	0.00000000000000	
12.87995600000000	53.08080500000000	756.29333299999996	63.94428500000000	0.35947900000000	0.00000000000000	0.10757700000000	0.00000000000000	0.00000000000000	0.00000000000000	0.00000000000000	0.00000000000000	0.00000000000000	0.00000000000000	32.03959700000000	0.00000000000000	0.00000000000000	0.00000000000000	0.00000000000000	
12.88162000000000	52.37260700000000	757.91745900000001	63.96976900000000	0.35823200000000	0.00000000000000	0.10761700000000	0.00000000000000	0.00000000000000	0.00000000000000	0.00000000000000	0.00000000000000	0.00000000000000	0.00000000000000	32.02695100000000	0.00000000000000	0.00000000000000	0.00000000000000	0.00000000000000	
12.88328500000000	51.67589600000000	759.46654200000000	63.99770500000000	0.35702200000000	0.00000000000000	0.10765400000000	0.00000000000000	0.00000000000000	0.00000000000000	0.00000000000000	0.00000000000000	0.00000000000000	0.00000000000000	32.01827300000000	0.00000000000000	0.00000000000000	0.00000000000000	0.00000000000000	
12.88495100000000	50.99092500000000	760.93867299999999	64.02773200000000	0.35585000000000	0.00000000000000	0.10768900000000	0.00000000000000	0.00000000000000	0.00000000000000	0.00000000000000	0.00000000000000	0.00000000000000	0.00000000000000	32.01328700000000	0.00000000000000	0.00000000000000	0.00000000000000	0.00000000000000	
12.88661600000000	50.31786200000000	762.33197500000006	64.05942100000000	0.35471600000000	0.00000000000000	0.10772100000000	0.00000000000000	0.00000000000000	0.00000000000000	0.00000000000000	0.00000000000000	0.00000000000000	0.00000000000000	32.01166900000000	0.00000000000000	0.00000000000000	0.00000000000000	0.00000000000000	
12.88829200000000	49.65679500000000	763.64462000000003	64.09227600000000	0.35362000000000	0.00000000000000	0.10775000000000	0.00000000000000	0.00000000000000	0.00000000000000	0.00000000000000	0.00000000000000	0.00000000000000	0.00000000000000	32.01305100000000	0.00000000000000	0.00000000000000	0.00000000000000	0.00000000000000	
12.88995100000000	49.00773200000000	764.87484600000005	64.12574499999999	0.35256000000000	0.00000000000000	0.10777700000000	0.00000000000000	0.00000000000000	0.00000000000000	0.00000000000000	0.00000000000000	0.00000000000000	0.00000000000000	32.01702000000000	0.00000000000000	0.00000000000000	0.00000000000000	0.00000000000000	
12.89162500000000	48.37061200000000	766.02097700000002	64.15922300000000	0.35153700000000	0.00000000000000	0.10780000000000	0.00000000000000	0.00000000000000	0.00000000000000	0.00000000000000	0.00000000000000	0.00000000000000	0.00000000000000	32.02312800000000	0.00000000000000	0.00000000000000	0.00000000000000	0.00000000000000	
12.89329000000000	47.74530100000000	767.08143600000005	64.19206100000000	0.35054900000000	0.00000000000000	0.10782100000000	0.00000000000000	0.00000000000000	0.00000000000000	0.00000000000000	0.00000000000000	0.00000000000000	0.00000000000000	32.03089700000000	0.00000000000000	0.00000000000000	0.00000000000000	0.00000000000000	
12.89495800000000	47.13160400000000	768.05476099999998	64.22357300000000	0.34959600000000	0.00000000000000	0.10783800000000	0.00000000000000	0.00000000000000	0.00000000000000	0.00000000000000	0.00000000000000	0.00000000000000	0.00000000000000	32.03981800000000	0.00000000000000	0.00000000000000	0.00000000000000	0.00000000000000	
